<svg version="1.1" xmlns="http://www.w3.org/2000/svg" viewBox="0 0 87.20831298828125 51.962249755859375" width="174.4166259765625" height="103.92449951171875">
  <!-- svg-source:excalidraw -->
  <!-- payload-type:application/vnd.excalidraw+json --><!-- payload-version:2 --><!-- payload-start -->eyJ2ZXJzaW9uIjoiMSIsImVuY29kaW5nIjoiYnN0cmluZyIsImNvbXByZXNzZWQiOnRydWUsImVuY29kZWQiOiJ4nGVSwW6cMFx1MDAxML3nK1x1MDAxMLk2xFx1MDAxOLDxXHUwMDFl0/RQtWrVrKpVVVWRXHUwMDAzXrBwMLJNNtvV/ntcdTAwMDdcdTAwMTNhsvXB0rz3ZuZ5PKerKIrdcVx1MDAxMPEmisVrxZWsXHI/xFx1MDAxZib8RVx1MDAxOCt1XHUwMDBmXHUwMDE09rHVo6m8snVusJvbWz5cZkkj3ZPWXVLp5zlNKPEsemdB+Fx1MDAxYuIoOvl71ciIyvG+UcIneGrVi1xcgt9079tSkueIobxYXHUwMDA00t5DNydqYPdcXFlcdTAwMTGYXHSKXHUwMDFmsp/5w81jJrjaXHUwMDFkv+ovu+8/7n+Fpnup1NZcdTAwMWTV/CZetaNZWbLO6E7sZO1a4NNcdTAwMGJ8ybNcdTAwMWFmXHUwMDE2soxcdTAwMWWbtlx1MDAxN9a+y9FcdTAwMDOvpDtOXHUwMDE4Qlx1MDAwYjrPYFx1MDAxM1x1MDAwNeRcdTAwMTWigqKEXCKMXHUwMDExyykmXHUwMDA1wVx1MDAwYjvl31x1MDAxNJQkLEV5Vlx1MDAxNlx1MDAxOS1cdTAwMTilXHUwMDE3xj5qpc1k7Fx1MDAxYflcdTAwMTOsPfGqa8BfXy9cdTAwMWFneG9cdTAwMDdu4L+C7vD2ZEJcdTAwMTOMyizFrCxxmeIw91bIpnUgydKEXHUwMDExjHNGi6IsXHUwMDE4XHUwMDE4XG5uhP9cdTAwMTZ4XHIjhObB5mRh+Fxc+/34cznVlpvhbXqxnYKV/cn5p9VyheRxqPm8XHUwMDA1KaEoZylLc0bCWJXsOyD7UamA6apcdTAwMGKL49Ez3L5oXGaLvXVQXHUwMDEy6Hl7wbWst/KveFcmfpHicPf/WK/3/sQgOvt6sGli8nw6X53/XHUwMDAxrufkbiJ9<!-- payload-end -->
  <defs>
    <style>
      @font-face {
        font-family: "Virgil";
        src: url("https://unpkg.com/@excalidraw/excalidraw@0.13.0/dist/excalidraw-assets/Virgil.woff2");
      }
      @font-face {
        font-family: "Cascadia";
        src: url("https://unpkg.com/@excalidraw/excalidraw@0.13.0/dist/excalidraw-assets/Cascadia.woff2");
      }
    </style>
  </defs>
  <rect x="0" y="0" width="87.20831298828125" height="51.962249755859375" fill="#ffffff"/><g stroke-linecap="round" transform="translate(10 10) rotate(0 33.604156494140625 15.981124877929688)"><path d="M-1.94 -1.97 C14.89 -1.5, 31.44 -0.42, 67.74 1.56 M-0.51 -0.99 C16.45 1.03, 31.14 -0.43, 66.8 0.3 M66.56 1.43 C66.9 10.91, 68.51 19.96, 67 32.53 M66.78 0.16 C66.94 7.34, 66.94 14.72, 66.52 32.3 M66.22 30.76 C45.59 32.19, 22.39 32.29, -1.83 33.08 M68.2 31.55 C49.24 31.8, 33.16 31.17, 0.16 32.14 M1.83 30.31 C0.14 23.64, 1.51 11.75, -0.46 0.19 M0.5 32.44 C1.01 22.53, -0.61 12.13, -0.76 0.98" stroke="#000000" stroke-width="1" fill="none"/></g></svg>